<?xml version="1.0" standalone="no"?>
<!DOCTYPE svg PUBLIC "-//W3C//DTD SVG 20010904//EN"
 "http://www.w3.org/TR/2001/REC-SVG-20010904/DTD/svg10.dtd">
<svg version="1.0" xmlns="http://www.w3.org/2000/svg"
 width="1536.000000pt" height="1024.000000pt" viewBox="0 0 1536.000000 1024.000000"
 preserveAspectRatio="xMidYMid meet">

<g transform="translate(0.000000,1024.000000) scale(0.100000,-0.100000)"
fill="#000000" stroke="none">
<path d="M5736 6975 c-48 -17 -112 -78 -132 -125 -20 -46 -76 -207 -245 -705
-98 -288 -146 -415 -160 -428 -38 -31 -63 -30 -128 2 -201 102 -505 97 -701
-11 -102 -56 -207 -162 -249 -251 -49 -102 -64 -190 -58 -332 6 -142 34 -250
103 -395 128 -270 367 -517 661 -680 172 -96 252 -124 353 -124 100 0 161 19
325 99 141 69 219 119 327 211 l86 74 13 -37 c7 -21 36 -62 68 -94 81 -81 122
-92 331 -93 150 0 170 2 215 22 28 13 66 39 86 58 l37 36 45 -35 c80 -61 129
-74 322 -83 142 -7 239 3 335 37 l59 20 41 -21 c23 -12 78 -25 127 -31 110
-14 665 -6 713 10 26 8 50 8 95 -1 87 -16 339 -16 399 1 29 9 64 29 87 51 l39
37 26 -28 c14 -15 49 -38 78 -50 47 -21 66 -23 231 -24 202 0 258 12 321 67
l33 30 33 -25 c86 -64 190 -83 402 -74 123 6 147 10 193 33 29 14 61 37 72 50
l20 26 33 -31 c52 -49 123 -70 256 -77 265 -13 409 26 477 130 21 31 39 74 45
108 7 37 10 229 8 530 l-3 473 -30 54 c-16 29 -43 64 -60 77 -67 51 -98 57
-305 63 l-195 6 -6 165 c-4 117 -10 175 -21 200 -15 36 -64 84 -103 102 -19 9
-20 17 -19 198 1 160 3 193 17 208 39 43 47 86 47 260 0 164 -1 170 -27 223
-21 41 -39 60 -73 79 l-45 25 -701 0 -701 0 -43 -30 c-55 -38 -82 -96 -88
-193 l-5 -73 -61 118 c-50 95 -70 124 -105 148 l-43 30 -506 0 -507 0 -41 -28
c-22 -15 -51 -46 -65 -70 l-24 -42 -3 -410 -2 -410 -65 -3 -65 -3 0 384 c0
424 -4 457 -61 521 -53 61 -87 68 -336 64 l-220 -3 -41 -27 c-68 -45 -76 -70
-82 -253 l-5 -160 -39 137 c-62 220 -94 271 -191 297 -62 17 -550 14 -599 -4z
m564 -115 c19 -10 46 -90 304 -900 69 -218 126 -401 126 -408 0 -25 -44 -32
-195 -32 -190 0 -187 -2 -236 148 l-33 102 -205 0 c-167 0 -207 -3 -221 -15
-14 -13 -26 -13 -101 1 -61 12 -117 15 -206 11 -68 -3 -123 -3 -123 -1 0 2 82
241 181 531 106 306 190 537 202 551 20 22 25 22 254 22 137 0 242 -4 253 -10z
m820 -10 c19 -19 20 -33 20 -494 l0 -475 175 -3 c151 -3 177 -5 192 -21 15
-15 19 -39 21 -158 3 -98 0 -144 -8 -155 -10 -12 -66 -14 -335 -14 -293 0
-325 2 -344 18 -13 10 -40 71 -71 161 l-51 144 3 492 c2 399 6 495 17 508 12
15 38 17 187 17 161 0 176 -2 194 -20z m903 3 c13 -16 16 -94 18 -661 3 -631
3 -644 -16 -659 -16 -11 -54 -13 -198 -11 -163 3 -180 5 -193 22 -12 17 -14
123 -14 657 0 566 2 639 16 653 13 13 45 16 193 16 157 0 180 -2 194 -17z
m524 -5 c11 -13 75 -115 141 -228 66 -113 150 -254 186 -315 36 -60 69 -116
73 -123 5 -8 7 133 5 313 -3 285 -1 330 13 351 15 24 18 24 164 24 127 0 152
-3 170 -17 l21 -18 -2 -650 -3 -650 -149 -3 c-118 -2 -153 1 -171 12 -13 8
-68 86 -122 173 -227 359 -320 509 -331 535 -19 45 24 32 54 -17 77 -123 142
-223 255 -392 69 -103 141 -214 160 -245 l34 -58 126 0 c106 0 128 3 133 16 3
9 6 290 6 625 l0 609 -124 0 c-91 0 -126 -4 -135 -13 -7 -9 -12 -127 -13 -368
l-3 -354 -27 -3 c-23 -3 -30 3 -48 38 -12 23 -96 164 -188 314 -91 149 -181
297 -200 329 l-35 57 -130 0 c-107 0 -134 -3 -149 -17 -17 -15 -18 -48 -18
-625 l0 -609 132 3 132 3 9 40 c4 22 7 185 5 362 -2 176 0 316 4 310 10 -16
10 -699 0 -714 -6 -9 -54 -13 -167 -14 -153 -1 -160 0 -177 21 -17 21 -18 63
-18 653 0 573 2 632 17 649 14 16 34 18 183 18 160 0 167 -1 187 -22z m1741 6
c21 -15 22 -21 22 -178 0 -140 -2 -165 -16 -170 -9 -3 -112 -6 -230 -6 l-214
0 0 -70 0 -70 185 0 c237 0 225 9 225 -166 0 -69 -5 -134 -10 -145 -10 -18
-23 -19 -205 -19 l-195 0 0 -75 0 -75 250 0 250 0 15 -24 c13 -19 15 -51 13
-172 l-3 -148 -34 -8 c-18 -5 -220 -8 -448 -6 l-415 3 -19 24 c-18 22 -19 48
-19 654 0 573 2 632 17 649 15 17 41 18 412 18 343 0 400 -2 419 -16z m-1988
-88 c0 -2 -9 -6 -20 -9 -11 -3 -18 -1 -14 4 5 9 34 13 34 5z m93 -3 c-7 -2
-21 -2 -30 0 -10 3 -4 5 12 5 17 0 24 -2 18 -5z m130 0 c-7 -2 -19 -2 -25 0
-7 3 -2 5 12 5 14 0 19 -2 13 -5z m555 0 c-10 -2 -18 -12 -18 -20 0 -9 -3 -14
-6 -10 -12 11 5 37 23 36 17 -1 17 -2 1 -6z m175 0 c-7 -2 -21 -2 -30 0 -10 3
-4 5 12 5 17 0 24 -2 18 -5z m-196 -125 c-2 -13 -4 -5 -4 17 -1 22 1 32 4 23
2 -10 2 -28 0 -40z m0 -140 c-2 -24 -4 -7 -4 37 0 44 2 63 4 43 2 -21 2 -57 0
-80z m0 -70 c-3 -8 -6 -5 -6 6 -1 11 2 17 5 13 3 -3 4 -12 1 -19z m0 -100 c-2
-18 -4 -6 -4 27 0 33 2 48 4 33 2 -15 2 -42 0 -60z m0 -150 c-2 -24 -4 -7 -4
37 0 44 2 63 4 43 2 -21 2 -57 0 -80z m-4172 -473 l50 -15 -45 7 c-25 4 -83 6
-130 4 -193 -6 -330 -58 -439 -168 -110 -111 -147 -218 -138 -398 6 -128 34
-229 103 -370 121 -248 406 -520 684 -652 181 -86 245 -85 425 3 40 20 59 26
45 15 -35 -28 -162 -80 -226 -93 -69 -14 -117 -2 -251 62 -57 27 -103 47 -103
45 0 -8 118 -67 191 -95 93 -36 156 -38 236 -10 72 25 81 24 23 -2 -27 -12
-75 -22 -120 -25 -67 -5 -84 -2 -157 27 -108 41 -274 142 -392 238 -297 241
-465 515 -501 814 -12 102 -8 157 17 248 52 192 240 345 467 381 66 10 197 2
261 -16z m698 18 c-13 -2 -33 -2 -45 0 -13 2 -3 4 22 4 25 0 35 -2 23 -4z
m-120 -10 c-7 -2 -19 -2 -25 0 -7 3 -2 5 12 5 14 0 19 -2 13 -5z m220 0 c-7
-2 -19 -2 -25 0 -7 3 -2 5 12 5 14 0 19 -2 13 -5z m268 -100 c13 -16 12 -17
-3 -4 -10 7 -18 15 -18 17 0 8 8 3 21 -13z m-1089 -17 c77 -17 164 -58 245
-116 31 -22 61 -40 67 -40 6 0 27 13 46 29 164 134 398 174 567 96 106 -48
193 -157 224 -279 17 -70 6 -205 -26 -306 -96 -302 -348 -580 -681 -751 l-101
-52 -48 16 c-68 24 -254 130 -348 200 -176 130 -330 312 -417 491 -100 205
-115 378 -45 516 44 88 171 180 275 201 60 12 172 9 242 -5z m2388 -200 c104
-17 139 -32 147 -64 7 -29 -2 -230 -12 -254 -11 -27 -33 -29 -93 -6 -115 45
-220 25 -286 -53 -69 -82 -65 -270 7 -347 67 -72 194 -88 301 -39 33 15 67 25
77 22 27 -9 49 -95 49 -192 0 -98 -10 -113 -92 -138 -177 -52 -357 -42 -497
30 -198 100 -312 386 -257 645 64 299 316 452 656 396z m-756 -28 c14 -20 16
-86 16 -525 0 -443 -2 -503 -16 -517 -12 -13 -41 -16 -153 -16 -94 0 -142 4
-154 13 -15 11 -17 57 -17 525 -1 379 2 517 11 528 9 11 44 14 155 14 136 0
144 -1 158 -22z m1756 2 c17 -17 20 -33 20 -124 0 -57 -3 -111 -6 -120 -5 -14
-32 -16 -190 -16 l-184 0 0 -60 0 -60 154 0 c191 0 186 4 186 -142 0 -74 -4
-100 -16 -112 -13 -13 -43 -16 -170 -16 l-154 0 0 -55 0 -55 179 0 c235 0 227
6 225 -154 -1 -75 -6 -122 -14 -131 -18 -22 -696 -22 -726 -1 -18 14 -19 31
-19 524 0 417 2 512 14 525 12 15 49 17 347 17 321 0 335 -1 354 -20z m513 2
c10 -10 86 -125 169 -255 84 -129 158 -244 165 -254 9 -14 12 37 12 242 1 189
4 264 13 273 19 19 272 16 292 -3 24 -25 27 -99 24 -583 -3 -398 -5 -464 -18
-472 -8 -5 -77 -10 -152 -10 -118 0 -141 3 -156 18 -25 25 -308 459 -350 537
l-27 50 -3 -289 c-1 -193 -6 -294 -13 -303 -18 -21 -292 -19 -313 3 -14 14
-16 75 -16 528 0 385 3 515 12 524 8 8 62 12 178 12 149 0 169 -2 183 -18z
m1631 5 c16 -12 18 -29 17 -137 -1 -73 -5 -128 -12 -136 -8 -9 -46 -14 -127
-16 l-117 -3 -3 -374 c-1 -256 -6 -378 -13 -388 -9 -10 -48 -13 -157 -13 -121
0 -148 3 -164 17 -17 15 -18 40 -18 390 l0 373 -116 0 c-63 0 -124 5 -135 10
-17 10 -19 22 -19 138 0 86 4 132 12 140 18 18 827 17 852 -1z m458 -4 c17
-15 18 -45 18 -528 0 -384 -3 -514 -12 -523 -8 -8 -59 -12 -165 -12 -140 0
-155 2 -173 20 -19 19 -20 33 -20 522 0 453 2 503 17 520 14 16 33 18 166 18
126 0 153 -3 169 -17z m237 -42 c8 -24 10 -177 9 -515 l-3 -481 -5 495 c-4
377 -8 502 -18 525 -7 17 -9 26 -4 20 5 -5 14 -25 21 -44z m-12 -708 c-1 -120
-2 -22 -2 217 0 239 1 337 2 218 2 -120 2 -316 0 -435z m-110 -288 c-4 -8 -2
-17 4 -20 16 -11 -7 -38 -35 -41 -33 -3 -33 13 1 48 30 31 38 35 30 13z
m-5287 -28 c0 -2 -12 -14 -27 -28 l-28 -24 24 28 c23 25 31 32 31 24z m-122
-100 c-29 -24 -98 -66 -86 -52 10 11 102 74 108 74 3 0 -7 -10 -22 -22z m42
-1 c0 -2 -8 -10 -17 -17 -16 -13 -17 -12 -4 4 13 16 21 21 21 13z m-45 -36
c-3 -5 -16 -15 -28 -21 -19 -9 -19 -8 3 10 28 23 34 26 25 11z m764 -4 c-2 -2
-38 -6 -79 -8 -42 -3 -64 -2 -50 2 25 8 137 13 129 6z m861 -11 c-10 -12 -33
-15 -104 -13 l-91 2 90 7 c83 6 79 6 -40 5 -71 -1 -116 1 -100 5 17 4 81 7
144 8 100 1 112 -1 101 -14z m893 8 c-79 -2 -207 -2 -285 0 -79 1 -15 3 142 3
157 0 221 -2 143 -3z m500 0 c-18 -2 -48 -2 -65 0 -18 2 -4 4 32 4 36 0 50 -2
33 -4z m70 0 c-7 -2 -19 -2 -25 0 -7 3 -2 5 12 5 14 0 19 -2 13 -5z m697 1
c-55 -7 -249 -9 -233 -2 10 3 72 6 138 6 66 -1 109 -2 95 -4z m623 -1 c-24 -2
-62 -2 -85 0 -24 2 -5 4 42 4 47 0 66 -2 43 -4z m686 3 c-2 -2 -38 -6 -79 -9
-46 -3 -62 -2 -40 3 36 8 126 13 119 6z m129 -3 c-10 -2 -28 -2 -40 0 -13 2
-5 4 17 4 22 1 32 -1 23 -4z m-951 -9 c-3 -3 -12 -4 -19 -1 -8 3 -5 6 6 6 11
1 17 -2 13 -5z m360 0 c-3 -3 -12 -4 -19 -1 -8 3 -5 6 6 6 11 1 17 -2 13 -5z
m-3804 -11 c-13 -2 -33 -2 -45 0 -13 2 -3 4 22 4 25 0 35 -2 23 -4z m1715 0
c-82 -2 -214 -2 -295 0 -82 1 -15 3 147 3 162 0 229 -2 148 -3z m565 0 c-29
-2 -78 -2 -110 0 -32 2 -8 3 52 3 61 0 87 -1 58 -3z m700 0 c-29 -2 -78 -2
-110 0 -32 2 -8 3 52 3 61 0 87 -1 58 -3z m705 0 c-43 -2 -113 -2 -155 0 -43
1 -8 3 77 3 85 0 120 -2 78 -3z m715 0 c-29 -2 -78 -2 -110 0 -32 2 -8 3 52 3
61 0 87 -1 58 -3z m-5283 -8 c0 -2 -13 -11 -30 -20 -38 -19 -40 -11 -2 9 31
17 32 18 32 11z m-104 -60 c-11 -8 -25 -15 -30 -15 -6 1 0 7 14 15 32 19 40
18 16 0z"/>
<path d="M6002 6313 c-34 -104 -62 -193 -62 -198 0 -6 51 -10 125 -10 120 0
124 1 119 20 -4 11 -26 83 -51 160 -24 77 -50 157 -56 178 l-12 38 -63 -188z"/>
<path d="M6825 6774 c-14 -15 -16 -68 -13 -528 l3 -511 34 -97 33 -98 308 0
c251 0 310 3 319 14 8 9 11 54 9 132 l-3 119 -190 5 -190 5 -1 33 c0 17 -1
237 -2 487 l-2 455 -144 0 c-120 0 -147 -3 -161 -16z m35 -8 c0 -2 -7 -6 -15
-10 -8 -3 -15 -1 -15 4 0 6 7 10 15 10 8 0 15 -2 15 -4z m337 -982 c-3 -3 -12
-4 -19 -1 -8 3 -5 6 6 6 11 1 17 -2 13 -5z"/>
<path d="M9558 6783 l-28 -4 0 -620 0 -619 410 0 410 0 11 27 c5 14 8 74 7
132 l-3 106 -261 3 -262 2 -4 43 c-2 23 -2 75 0 115 l5 72 186 0 c102 0 192 4
200 9 19 12 29 195 11 206 -7 4 -16 2 -20 -5 -6 -10 -9 -9 -13 1 -4 10 -6 9
-6 -3 -1 -10 -6 -18 -12 -18 -6 0 -9 7 -5 15 5 13 -10 15 -99 15 -63 0 -105
-4 -105 -10 0 -5 -9 -10 -20 -10 -14 0 -18 -5 -14 -17 4 -13 3 -14 -3 -5 -14
19 -65 26 -74 10 -7 -10 -9 -9 -9 5 0 9 6 18 13 18 6 1 -1 5 -18 9 -17 5 64 7
183 7 194 -2 249 3 190 18 -13 3 -107 5 -211 3 l-187 -3 0 107 c0 62 4 109 10
113 6 4 8 10 5 14 -2 5 12 5 33 2 45 -9 397 -5 412 4 6 4 10 56 10 131 l0 124
-344 0 c-189 0 -350 2 -358 3 -7 2 -25 2 -40 0z m732 -34 c0 -11 -5 -29 -10
-40 -6 -11 -7 -19 -1 -19 5 0 7 -9 4 -20 -3 -11 -9 -20 -14 -20 -13 0 -23 22
-13 29 14 9 17 44 4 36 -6 -4 -18 -1 -27 7 -14 11 -16 11 -9 -2 4 -8 0 -6 -9
5 -14 18 -14 20 2 27 15 6 16 7 2 7 -9 1 -23 -7 -30 -16 -8 -9 -9 -14 -3 -10
18 11 25 -20 8 -34 -8 -7 -14 -8 -13 -3 1 5 -1 17 -6 27 -6 15 -10 16 -17 5
-7 -9 -8 -7 -5 10 4 18 1 22 -22 22 -15 0 -31 -8 -39 -20 -9 -16 -21 -19 -53
-17 -22 2 -42 0 -45 -5 -3 -5 -10 -6 -15 -2 -6 3 -17 -2 -25 -12 -13 -17 -13
-17 -8 -1 5 13 2 16 -10 11 -9 -3 -16 -2 -16 3 0 13 -33 12 -42 -1 -5 -7 -8
-3 -8 9 -1 18 -2 18 -11 3 -7 -13 -15 -15 -33 -8 -13 5 -27 6 -30 3 -3 -4 -6
0 -6 9 0 8 7 15 15 15 8 0 15 -4 15 -9 0 -5 5 -6 10 -3 22 14 8 25 -30 23 -22
-1 -40 -5 -40 -10 0 -5 5 -6 10 -3 6 3 10 2 10 -3 0 -17 -66 -37 -75 -22 -2 4
-18 5 -35 2 -24 -3 -30 -8 -26 -21 5 -12 2 -11 -8 3 -10 11 -21 16 -32 12 -9
-3 -23 -1 -30 5 -9 7 -14 8 -14 1 0 -6 -3 -17 -6 -25 -4 -11 6 -19 31 -27 33
-11 35 -14 22 -27 -16 -17 -42 -9 -31 9 4 7 2 8 -4 4 -7 -4 -12 -20 -12 -37 0
-27 3 -29 31 -27 24 2 33 -1 35 -15 1 -9 -2 -15 -7 -11 -5 3 -7 11 -3 17 3 7
-5 -1 -19 -18 -25 -28 -26 -29 -22 -7 3 19 2 22 -9 13 -11 -9 -12 -18 -3 -41
9 -24 14 -27 30 -19 10 6 21 8 25 5 3 -3 0 -6 -7 -6 -8 0 -11 -8 -8 -20 3 -11
1 -20 -4 -20 -5 0 -9 4 -9 9 0 6 -8 9 -19 8 -16 -1 -18 -9 -16 -62 2 -33 4
-62 5 -65 1 -3 2 -8 2 -11 -1 -4 7 -5 17 -2 10 3 22 0 26 -7 4 -7 1 -11 -6 -9
-28 3 -39 -1 -39 -16 0 -8 3 -14 8 -14 21 4 42 -2 42 -12 0 -5 -4 -8 -9 -4 -5
3 -13 0 -17 -6 -4 -8 -9 -7 -16 2 -8 11 -9 11 -5 -1 2 -8 13 -16 25 -18 12 -2
22 -7 22 -12 0 -4 -12 -6 -27 -4 -26 4 -28 2 -26 -28 1 -18 2 -35 3 -38 1 -3
1 -14 0 -25 -2 -16 0 -17 14 -6 9 8 19 11 23 7 3 -3 0 -6 -7 -6 -9 0 -7 -5 6
-15 16 -13 16 -14 2 -9 -10 3 -18 1 -18 -5 0 -6 5 -11 10 -11 6 0 10 -7 10
-15 0 -8 -5 -15 -11 -15 -5 0 -7 5 -3 11 4 8 0 8 -15 0 -22 -12 -28 -45 -11
-56 8 -5 7 -11 0 -20 -14 -17 -11 -104 4 -124 8 -11 8 -13 -1 -7 -8 4 -13 1
-13 -9 0 -9 5 -13 10 -10 13 8 13 -8 0 -21 -5 -5 -11 -75 -13 -154 -1 -80 -4
131 -5 468 l-2 612 375 0 c372 0 375 0 375 -21z m-574 -64 c-2 -7 0 -17 6 -23
6 -6 6 -12 -3 -17 -8 -6 -10 -4 -4 5 6 10 3 12 -14 7 -21 -5 -22 -4 -8 11 12
13 13 21 5 37 -11 18 -10 19 6 6 9 -8 15 -20 12 -26z m-139 10 c0 -8 -4 -12
-9 -9 -5 3 -6 10 -3 15 9 13 12 11 12 -6z m37 0 c-4 -8 -11 -12 -16 -9 -6 4
-5 10 3 15 19 12 19 11 13 -6z m321 -44 c-3 -5 -1 -12 5 -16 5 -3 10 -11 10
-18 0 -6 -7 -2 -15 9 -8 10 -14 30 -14 44 0 22 1 23 10 7 5 -9 8 -21 4 -26z
m108 14 c4 -8 3 -16 -1 -19 -4 -3 -9 4 -9 15 -2 23 3 25 10 4z m-58 -4 c3 -5
1 -12 -5 -16 -5 -3 -10 1 -10 9 0 18 6 21 15 7z m211 -44 c1 -9 -2 -15 -7 -11
-5 3 -9 0 -9 -6 0 -6 -5 -8 -11 -4 -8 4 -6 10 6 17 14 8 15 11 4 19 -12 8 -12
9 0 6 8 -2 15 -12 17 -21z m81 -9 c4 -28 -6 -18 -12 12 -2 12 -1 20 2 16 4 -4
8 -16 10 -28z m-627 6 c0 -8 -19 -13 -24 -6 -3 5 1 9 9 9 8 0 15 -2 15 -3z
m450 -9 c-6 -8 -9 -19 -5 -25 3 -5 1 -10 -4 -10 -15 0 -14 23 1 38 17 17 23
15 8 -3z m-374 -20 c-1 -8 -6 -18 -12 -22 -5 -4 -6 -4 -2 1 4 5 3 15 -3 23 -9
10 -8 13 4 13 8 0 14 -7 13 -15z m214 -21 c0 -10 6 -14 15 -11 8 4 17 2 20 -4
4 -5 11 -7 16 -4 5 4 9 1 9 -5 0 -16 -52 -8 -67 10 -15 18 -16 30 -3 30 6 0
10 -7 10 -16z m254 -6 c-2 -4 4 -11 13 -17 17 -10 17 -10 1 -11 -10 0 -18 5
-18 10 0 6 -10 15 -22 20 -22 8 -22 9 4 7 15 -1 25 -5 22 -9z m87 -14 c9 -12
6 -14 -18 -14 -18 0 -30 5 -30 13 0 18 33 19 48 1z m-355 -7 c2 -2 -9 -4 -26
-5 -16 0 -32 3 -35 8 -5 9 53 6 61 -3z m134 7 c0 -8 -19 -13 -24 -6 -3 5 1 9
9 9 8 0 15 -2 15 -3z m100 -10 c0 -2 -11 -4 -25 -4 -14 0 -25 4 -25 9 0 4 11
6 25 3 14 -2 25 -6 25 -8z m-413 -56 c-3 -8 -6 -5 -6 6 -1 11 2 17 5 13 3 -3
4 -12 1 -19z m-27 -44 c0 -8 -5 -12 -10 -9 -6 4 -8 11 -5 16 9 14 15 11 15 -7z
m-114 -16 c5 -8 2 -9 -9 -5 -10 3 -17 2 -17 -4 0 -6 -5 -7 -10 -4 -6 4 -8 11
-5 16 8 13 32 11 41 -3z m114 -18 c0 -5 -10 -10 -22 -9 -22 0 -22 1 -3 9 11 5
21 9 23 9 1 1 2 -3 2 -9z m26 -20 c0 -12 -4 -16 -9 -11 -5 5 -6 14 -3 20 10
15 12 14 12 -9z m74 -19 c0 -22 -5 -43 -10 -46 -6 -4 -8 -10 -5 -15 3 -4 -4
-10 -15 -13 -12 -3 -17 -1 -14 5 3 5 -4 12 -16 15 -13 4 -17 8 -10 13 6 4 12
20 14 36 2 16 4 32 5 37 0 4 12 7 26 7 22 0 25 -4 25 -39z m-165 7 c5 4 5 1 1
-6 -6 -10 -11 -10 -22 -1 -8 6 -14 14 -14 16 0 3 6 0 13 -6 8 -6 18 -7 22 -3z
m68 -70 c-5 -34 -4 -37 16 -33 11 2 23 0 26 -5 3 -4 -3 -7 -12 -5 -10 1 -26
-7 -36 -19 -10 -11 -16 -16 -15 -11 1 6 -3 20 -10 32 -11 20 -10 22 5 16 13
-5 15 -3 10 11 -4 10 -2 26 3 36 9 17 8 18 -7 13 -16 -6 -16 -5 -4 11 20 24
32 2 24 -46z m-128 22 c3 -5 1 -10 -4 -10 -6 0 -11 5 -11 10 0 6 2 10 4 10 3
0 8 -4 11 -10z m59 -109 c4 -5 -3 -7 -14 -4 -23 6 -26 13 -6 13 8 0 17 -4 20
-9z m227 -4 c-6 -8 -7 -18 -3 -22 4 -5 1 -5 -6 -1 -10 6 -10 11 -1 22 6 8 14
14 16 14 3 0 0 -6 -6 -13z m46 -19 c-3 -8 -6 -5 -6 6 -1 11 2 17 5 13 3 -3 4
-12 1 -19z m53 -18 c0 -5 -5 -10 -11 -10 -5 0 -7 5 -4 10 3 6 8 10 11 10 2 0
4 -4 4 -10z m-347 -31 c-8 -8 -13 -7 -18 2 -6 8 -4 10 5 4 10 -6 12 -4 6 11
-6 15 -5 17 5 7 9 -10 10 -16 2 -24z m307 21 c0 -5 -2 -10 -4 -10 -3 0 -8 5
-11 10 -3 6 -1 10 4 10 6 0 11 -4 11 -10z m-225 -10 c-9 -14 9 -12 24 3 10 10
11 8 5 -7 -6 -15 -4 -17 6 -11 9 5 11 4 6 -3 -4 -7 -16 -12 -27 -12 -11 0 -17
-5 -14 -10 4 -6 11 -7 17 -4 6 4 5 -2 -1 -15 -10 -17 -15 -19 -31 -11 -23 12
-26 21 -7 18 8 -2 11 8 11 30 -1 17 2 32 8 32 5 0 6 -4 3 -10z m37 -72 c-8 -8
-9 -4 -5 13 4 13 8 18 11 10 2 -7 -1 -18 -6 -23z m473 22 c3 -5 1 -10 -4 -10
-6 0 -11 5 -11 10 0 6 2 10 4 10 3 0 8 -4 11 -10z m-272 -23 c4 3 7 1 7 -5 0
-17 -16 -15 -31 6 -12 15 -12 16 2 5 9 -7 19 -10 22 -6z m-136 -179 c-3 -7 -5
-2 -5 12 0 14 2 19 5 13 2 -7 2 -19 0 -25z m-24 9 c4 3 7 -3 7 -15 0 -12 -5
-22 -11 -22 -5 0 -8 -4 -5 -9 3 -5 15 -7 26 -4 17 4 20 0 20 -26 0 -22 -4 -29
-14 -25 -8 3 -12 13 -10 22 4 13 2 12 -11 -3 -17 -20 -17 -20 -11 1 5 17 3 22
-11 20 -10 0 -23 -8 -30 -16 -14 -16 -16 -10 -7 14 3 9 12 16 20 16 9 0 12 10
9 31 -3 24 -1 28 9 20 7 -6 16 -8 19 -4z m-156 -12 c0 -8 -4 -12 -9 -9 -5 3
-6 10 -3 15 9 13 12 11 12 -6z m83 -20 c0 -5 -5 -3 -10 5 -5 8 -10 20 -10 25
0 6 5 3 10 -5 5 -8 10 -19 10 -25z m-35 13 c5 4 5 1 1 -6 -6 -10 -11 -10 -22
-1 -8 6 -14 14 -14 16 0 3 6 0 13 -6 8 -6 18 -7 22 -3z m39 -31 c4 4 4 0 0
-10 -5 -14 -9 -15 -20 -6 -11 9 -14 8 -14 -1 0 -8 -2 -11 -5 -8 -3 3 -3 13 1
22 4 12 10 14 19 6 6 -5 15 -7 19 -3z m-70 -53 c3 -8 2 -12 -4 -9 -6 3 -10 10
-10 16 0 14 7 11 14 -7z m34 -9 c-3 -3 -9 2 -12 12 -6 14 -5 15 5 6 7 -7 10
-15 7 -18z m112 -20 c0 -8 -2 -15 -4 -15 -2 0 -6 7 -10 15 -3 8 -1 15 4 15 6
0 10 -7 10 -15z m553 0 c-6 -17 -43 -17 -55 0 -5 6 -11 5 -17 -4 -5 -7 -11 -9
-14 -4 -4 6 -20 10 -37 11 -27 1 -35 -7 -31 -31 1 -5 -3 -5 -9 -2 -6 4 -9 13
-6 21 4 11 -12 14 -89 14 -52 0 -95 -4 -95 -8 0 -5 -7 -9 -15 -9 -8 0 -15 4
-15 9 0 4 -12 8 -26 8 -20 0 -24 -3 -16 -13 8 -9 0 -11 -36 -9 -59 4 -75 9
-67 22 4 6 104 10 270 10 234 0 264 -2 258 -15z m-348 -44 c3 -5 2 -12 -3 -15
-5 -3 -9 1 -9 9 0 17 3 19 12 6z m341 -18 c-10 -10 -19 5 -10 18 6 11 8 11 12
0 2 -7 1 -15 -2 -18z m-164 3 c7 4 8 2 4 -5 -9 -13 -26 -5 -25 12 0 9 2 8 6
-1 2 -6 10 -9 15 -6z m-459 -33 c-3 -7 -6 -13 -8 -13 -2 0 -5 6 -8 13 -3 8 1
14 8 14 7 0 11 -6 8 -14z m157 -49 c0 -8 -4 -14 -9 -14 -6 0 -9 9 -8 19 1 22
17 18 17 -5z m51 -21 c-9 -16 -10 -14 -11 12 0 21 3 26 11 18 8 -8 8 -16 0
-30z m169 22 c11 -13 10 -14 -4 -9 -9 3 -16 10 -16 15 0 13 6 11 20 -6z m-380
-36 c-6 -10 -13 -19 -16 -19 -2 0 0 8 5 19 6 10 7 22 3 26 -4 5 -1 5 6 1 9 -5
9 -12 2 -27z m630 9 c0 -4 -4 -8 -9 -8 -6 0 -12 4 -15 8 -3 5 1 9 9 9 8 0 15
-4 15 -9z m-228 -15 c-6 -2 -10 -9 -7 -14 4 -5 -1 -6 -10 -2 -13 5 -14 7 -3
14 7 5 18 8 23 8 6 0 4 -3 -3 -6z m-267 -23 c3 -5 1 -10 -4 -10 -6 0 -11 5
-11 10 0 6 2 10 4 10 3 0 8 -4 11 -10z m368 -5 c9 -4 26 -5 37 -2 11 3 20 1
20 -4 0 -13 -54 -11 -68 3 -9 9 -12 9 -12 0 0 -7 -8 -12 -18 -12 -10 0 -19 6
-19 13 0 14 30 15 60 2z m127 0 c0 -12 -19 -12 -23 0 -4 9 -1 12 9 8 7 -3 14
-7 14 -8z m-630 -7 c0 -4 -7 -8 -15 -8 -8 0 -15 4 -15 8 0 5 7 9 15 9 8 0 15
-4 15 -9z m380 2 c0 -5 -4 -10 -10 -10 -5 0 -10 5 -10 10 0 6 5 10 10 10 6 0
10 -4 10 -10z"/>
<path d="M9560 6750 c0 -5 7 -7 15 -4 8 4 15 8 15 10 0 2 -7 4 -15 4 -8 0 -15
-4 -15 -10z"/>
<path d="M9728 6753 c7 -3 16 -2 19 1 4 3 -2 6 -13 5 -11 0 -14 -3 -6 -6z"/>
<path d="M9898 6753 c7 -3 16 -2 19 1 4 3 -2 6 -13 5 -11 0 -14 -3 -6 -6z"/>
<path d="M10022 6742 c6 -7 14 -9 17 -5 4 4 10 11 15 16 5 4 -2 6 -17 5 -20
-2 -24 -5 -15 -16z"/>
<path d="M9773 6355 c0 -8 4 -12 9 -9 4 3 8 9 8 15 0 5 -4 9 -8 9 -5 0 -9 -7
-9 -15z"/>
<path d="M9770 5890 c0 -5 5 -10 11 -10 5 0 7 5 4 10 -3 6 -8 10 -11 10 -2 0
-4 -4 -4 -10z"/>
<path d="M9925 6250 c3 -5 12 -7 20 -3 21 7 19 13 -6 13 -11 0 -18 -4 -14 -10z"/>
<path d="M4588 5521 c-26 -11 -65 -33 -87 -50 -43 -35 -101 -115 -100 -140 0
-10 4 -6 10 8 17 43 18 18 1 -46 -13 -49 -14 -66 -4 -87 20 -44 55 -35 117 29
29 30 59 55 67 55 23 0 97 60 114 91 19 39 35 79 29 79 -2 0 -14 -23 -26 -50
-21 -50 -86 -110 -117 -110 -8 0 -39 -25 -68 -55 -85 -88 -132 -68 -104 43 27
110 91 188 186 227 32 14 52 24 44 24 -8 0 -36 -8 -62 -18z m-138 -131 c-6
-11 -13 -20 -16 -20 -2 0 0 9 6 20 6 11 13 20 16 20 2 0 0 -9 -6 -20z"/>
<path d="M5575 5524 c-109 -14 -252 -64 -240 -83 2 -5 -15 -14 -38 -21 -23 -7
-36 -15 -30 -17 7 -3 30 1 50 8 21 7 44 14 51 15 8 1 17 6 20 10 4 4 -1 4 -10
1 -10 -3 -20 -2 -23 3 -7 11 96 49 165 61 64 10 196 12 187 2 -4 -3 -29 -5
-57 -4 -45 1 -50 -1 -50 -19 0 -12 4 -18 10 -15 6 3 7 -1 4 -10 -5 -11 -10
-13 -19 -5 -6 5 -14 7 -18 4 -3 -3 -15 -1 -26 5 -15 9 -39 9 -88 0 -80 -14
-71 -24 10 -11 51 8 58 7 76 -12 19 -21 21 -38 23 -357 l3 -335 -29 -38 c-73
-96 -242 -103 -301 -13 -40 61 -27 140 29 180 26 18 44 22 113 22 l83 0 0 121
c0 67 -3 141 -6 165 l-6 45 -175 -46 -175 -45 4 -256 3 -255 -25 -37 c-33 -49
-108 -87 -171 -87 -115 0 -179 67 -179 185 0 82 58 141 150 152 14 2 44 5 68
9 l42 5 -1 162 c-1 89 -5 194 -9 232 -5 52 -7 21 -8 -122 -1 -121 -6 -193 -12
-193 -5 0 -10 -8 -10 -17 0 -15 2 -16 10 -3 8 13 10 12 10 -2 0 -29 -1 -33
-11 -31 -5 2 -9 -2 -9 -7 0 -6 -15 -10 -34 -10 -46 0 -140 -44 -170 -81 -29
-35 -40 -83 -33 -145 2 -24 2 -44 -2 -44 -25 0 -206 221 -247 302 -43 85 -76
200 -84 293 l-7 90 -1 -71 c-4 -169 80 -354 242 -534 59 -66 243 -237 302
-281 28 -21 97 -62 154 -90 84 -42 107 -49 124 -40 12 5 53 22 91 37 248 96
530 377 620 618 75 200 68 364 -20 497 -25 38 -53 54 -41 23 3 -9 2 -12 -4 -9
-6 4 -9 14 -8 23 7 42 -163 90 -267 76z"/>
<path d="M4778 5495 c-37 -21 -36 -30 2 -10 45 23 110 19 182 -13 68 -30 130
-63 165 -88 14 -10 23 -12 28 -5 3 6 -2 11 -13 11 -11 0 -26 8 -33 17 -8 9
-52 35 -99 57 -98 46 -185 58 -232 31z"/>
<path d="M4391 5294 c0 -11 3 -14 6 -6 3 7 2 16 -1 19 -3 4 -6 -2 -5 -13z"/>
<path d="M6976 5310 c-165 -59 -264 -173 -301 -347 -19 -88 -19 -156 1 -251
24 -120 96 -254 126 -236 7 4 8 2 4 -5 -14 -23 89 -92 175 -117 30 -9 60 -21
67 -27 23 -18 212 -10 279 13 32 11 49 18 37 16 -12 -2 -21 2 -21 10 0 7 4 11
9 8 4 -3 8 2 8 10 0 9 6 16 14 16 8 0 17 8 19 18 4 16 5 16 6 0 2 -30 18 -20
24 15 5 37 -12 157 -23 157 -4 0 -34 -12 -66 -27 -81 -37 -197 -39 -263 -5
-58 31 -108 87 -117 131 -19 95 -20 200 0 264 8 26 10 49 5 52 -12 8 1 37 15
32 13 -5 48 17 47 30 -1 4 2 8 7 8 4 0 16 6 27 14 14 9 15 11 3 7 -9 -3 -19
-2 -21 2 -2 4 -2 0 0 -8 3 -11 1 -12 -8 -3 -6 6 -9 16 -5 21 7 12 285 11 304
-1 6 -5 18 -5 25 -1 9 6 8 3 -1 -8 -13 -16 -47 -14 -37 2 3 5 -5 6 -16 3 -19
-5 -17 -8 16 -21 35 -14 39 -14 51 3 10 13 14 47 13 109 -2 71 -3 82 -9 51
l-7 -40 -3 35 c-1 19 -2 40 -1 47 3 21 -70 35 -199 39 -108 4 -133 2 -184 -16z
m207 3 c-18 -2 -48 -2 -65 0 -18 2 -4 4 32 4 36 0 50 -2 33 -4z m-128 -10
c-11 -2 -30 -6 -42 -9 -15 -3 -23 -12 -23 -25 0 -11 -5 -17 -10 -14 -6 4 -8
11 -5 16 3 5 -1 6 -9 3 -9 -3 -16 -3 -16 0 0 12 64 35 95 34 19 0 23 -2 10 -5z
m208 0 c-7 -2 -19 -2 -25 0 -7 3 -2 5 12 5 14 0 19 -2 13 -5z m44 -9 c-3 -3
-12 -4 -19 -1 -8 3 -5 6 6 6 11 1 17 -2 13 -5z m-378 -27 c-16 -12 -79 -45
-79 -42 0 7 63 45 74 45 5 0 7 -1 5 -3z m-113 -82 c-26 -21 -28 -26 -16 -42
12 -15 12 -16 0 -6 -11 10 -18 9 -34 -5 -20 -16 -20 -16 -6 3 27 39 74 85 79
79 3 -3 -7 -16 -23 -29z m551 -7 c-3 -8 -6 -5 -6 6 -1 11 2 17 5 13 3 -3 4
-12 1 -19z m-627 -98 c-6 -12 -14 -19 -17 -17 -2 3 1 15 7 27 6 12 14 19 17
17 2 -3 -1 -15 -7 -27z m270 10 c0 -5 -5 -10 -11 -10 -5 0 -7 5 -4 10 3 6 8
10 11 10 2 0 4 -4 4 -10z m-15 -29 c3 -5 2 -12 -3 -15 -5 -3 -9 1 -9 9 0 17 3
19 12 6z m-286 -58 c-7 -21 -15 -87 -19 -148 l-7 -110 -1 94 c-2 86 22 221 35
207 3 -3 -1 -22 -8 -43z m206 -51 c-13 -9 -18 -42 -7 -42 12 0 23 -55 16 -75
-8 -19 -34 -20 -34 0 0 8 0 17 0 20 0 3 3 4 8 3 4 -2 6 -9 5 -17 -1 -9 2 -10
10 -2 8 8 8 14 0 22 -6 6 -10 17 -9 23 2 6 1 8 -1 4 -10 -17 -21 -6 -21 20 0
29 14 52 32 52 7 0 7 -3 1 -8z m-198 -39 c-4 -3 7 -19 25 -35 17 -15 28 -31
25 -35 -4 -3 -7 -1 -7 5 0 9 -5 9 -20 0 -15 -10 -22 -10 -31 -1 -9 9 -7 11 10
6 11 -3 21 -2 21 2 0 9 -27 35 -32 30 -2 -2 -4 5 -5 15 -1 11 3 20 9 20 6 0 8
-3 5 -7z m50 -110 c-7 -6 -46 10 -41 18 3 5 14 3 24 -3 11 -7 18 -13 17 -15z
m169 -60 c-3 -4 -6 -1 -6 6 0 7 -4 10 -8 7 -4 -2 -9 5 -9 16 -2 21 -2 21 14
-1 8 -12 12 -25 9 -28z m-239 -45 c-3 -8 -6 -5 -6 6 -1 11 2 17 5 13 3 -3 4
-12 1 -19z m703 -176 c-6 -2 -7 -8 -4 -14 4 -6 -2 -5 -15 1 -25 14 -28 46 -3
60 14 8 18 5 24 -17 5 -16 3 -28 -2 -30z m-247 -9 c-7 -2 -19 -2 -25 0 -7 3
-2 5 12 5 14 0 19 -2 13 -5z m114 1 c-3 -3 -12 -4 -19 -1 -8 3 -5 6 6 6 11 1
17 -2 13 -5z m-427 -59 c14 -19 14 -19 -2 -6 -10 7 -18 18 -18 24 0 6 1 8 3 6
1 -2 9 -13 17 -24z m150 15 c0 -5 -5 -10 -11 -10 -5 0 -7 5 -4 10 3 6 8 10 11
10 2 0 4 -4 4 -10z m420 -20 c0 -5 -2 -10 -4 -10 -3 0 -8 5 -11 10 -3 6 -1 10
4 10 6 0 11 -4 11 -10z m-376 -28 c3 -5 -1 -9 -9 -9 -8 0 -15 4 -15 9 0 4 4 8
9 8 6 0 12 -4 15 -8z m-70 -27 c-7 -16 -24 -21 -24 -6 0 8 7 13 27 20 1 1 0
-6 -3 -14z m33 8 c-4 -3 1 -16 10 -27 14 -15 14 -18 2 -8 -9 6 -18 9 -22 6 -3
-3 -4 2 -2 13 5 24 4 23 12 23 3 0 3 -3 0 -7z m263 -63 c0 -5 -5 -10 -11 -10
-5 0 -7 5 -4 10 3 6 8 10 11 10 2 0 4 -4 4 -10z"/>
<path d="M9607 5303 c-4 -3 -6 -47 -5 -97 l2 -91 5 90 6 90 384 3 c301 2 386
-1 393 -10 5 -9 8 -8 8 5 0 16 -25 17 -393 17 -217 0 -397 -3 -400 -7z"/>
<path d="M9885 4710 c0 -217 1 -306 2 -197 2 108 2 286 0 395 -1 108 -2 19 -2
-198z"/>
<path d="M10592 5298 c-16 -16 -17 -963 -2 -973 7 -4 10 159 10 481 0 268 2
485 4 483 3 -3 6 -56 7 -118 1 -78 5 -109 12 -102 16 16 19 74 5 83 -10 6 -10
8 0 8 6 0 12 7 12 15 0 8 -5 15 -12 15 -9 0 -9 3 0 12 16 16 15 31 0 22 -8 -5
-7 0 2 11 13 17 13 18 0 10 -13 -7 -13 -6 -2 7 10 13 10 17 0 21 -9 4 -9 6 2
6 13 1 13 2 0 11 -10 7 21 10 98 10 105 0 112 -1 112 -20 0 -11 5 -20 10 -20
11 0 13 11 4 34 -5 13 -26 16 -128 16 -82 0 -126 -4 -134 -12z"/>
<path d="M10750 5271 c-5 -11 -10 -27 -10 -35 0 -9 -6 -16 -12 -16 -9 0 -8 -4
2 -10 10 -6 11 -10 3 -10 -8 0 -13 -13 -13 -30 0 -17 5 -30 13 -30 8 0 9 -2 1
-8 -6 -4 -12 -33 -13 -66 -1 -47 2 -57 14 -53 9 4 12 1 8 -8 -3 -8 -10 -12
-15 -9 -11 7 -5 -56 7 -76 5 -9 4 -11 -3 -6 -19 11 -18 -69 0 -91 7 -9 7 -13
-1 -13 -6 0 -11 -17 -11 -41 0 -24 4 -38 10 -34 6 3 10 2 10 -4 0 -5 -14 -13
-31 -16 -23 -5 -28 -10 -18 -16 8 -4 16 -4 20 2 3 6 11 -3 17 -19 11 -33 7
-43 -13 -36 -7 3 -16 0 -20 -6 -6 -9 -10 -9 -16 1 -6 10 -9 10 -9 2 0 -8 -7
-10 -17 -6 -23 8 -33 24 -25 38 11 16 11 35 1 35 -6 0 -6 8 1 19 14 27 13 74
-2 65 -6 -4 -9 -3 -6 2 4 5 9 26 12 47 4 28 3 36 -6 31 -6 -4 -9 -3 -6 2 12
18 18 85 8 79 -11 -7 -14 8 -3 19 11 11 12 36 1 36 -6 0 -4 7 3 17 8 9 9 14 2
10 -6 -4 -13 -1 -16 5 -2 7 -5 -137 -6 -319 -1 -183 0 -333 3 -333 3 0 10 10
17 21 9 17 8 20 -3 13 -11 -6 -11 -5 0 8 7 9 13 49 14 96 1 66 4 79 16 74 9
-3 13 -1 9 4 -3 6 7 10 24 10 16 0 29 -3 29 -8 0 -4 -9 -8 -21 -8 -25 0 -60
-31 -41 -38 6 -2 12 -10 12 -18 0 -9 5 -12 10 -9 6 4 8 10 5 15 -3 4 3 7 12 6
24 -4 32 -76 9 -76 -8 0 -17 -4 -20 -9 -3 -5 2 -8 12 -7 12 1 18 -8 20 -26 3
-22 -1 -28 -15 -28 -15 0 -16 -2 -3 -10 8 -5 11 -10 6 -10 -5 0 -3 -7 4 -15 7
-8 10 -22 6 -30 -4 -11 2 -15 22 -16 62 -2 107 4 114 14 9 15 11 883 1 874 -3
-4 -7 -17 -8 -30 -1 -12 -6 -21 -11 -19 -5 2 -8 10 -6 19 2 8 -1 13 -5 10 -5
-3 -15 -2 -23 4 -11 6 -12 9 -2 9 8 0 10 5 5 12 -4 7 -6 25 -4 40 2 22 -2 28
-18 28 -11 0 -25 -9 -31 -19z m40 5 c0 -2 -8 -10 -17 -17 -16 -13 -17 -12 -4
4 13 16 21 21 21 13z m-15 -57 c-4 -5 -12 -9 -18 -8 -9 0 -8 2 1 6 6 2 9 10 6
15 -4 7 -2 8 5 4 6 -4 9 -12 6 -17z m58 -72 c4 3 7 -7 6 -23 0 -16 -3 -22 -6
-14 -3 8 -13 24 -22 35 -14 17 -14 18 0 7 9 -6 19 -9 22 -5z m-5 -146 c8 -5
13 -27 13 -57 -1 -70 -3 -84 -13 -84 -8 0 -4 31 8 70 3 8 2 11 -2 7 -4 -4 -16
0 -26 10 -22 19 -25 41 -3 23 9 -7 18 -11 20 -8 9 8 -6 38 -16 32 -5 -3 -9 0
-9 5 0 13 10 14 28 2z m-53 -35 c0 -15 -4 -21 -9 -16 -5 5 -6 16 -3 24 9 22
12 20 12 -8z m-25 4 c0 -5 -5 -10 -11 -10 -5 0 -7 5 -4 10 3 6 8 10 11 10 2 0
4 -4 4 -10z m70 -49 c0 -4 -6 -8 -14 -8 -8 0 -12 6 -9 14 5 13 23 9 23 -6z
m20 -245 c-8 -8 -9 -6 -5 5 4 10 1 20 -4 24 -6 3 -8 11 -5 17 5 7 11 2 16 -12
5 -15 5 -27 -2 -34z m3 -51 c4 -8 1 -17 -5 -21 -7 -4 -8 -3 -4 4 4 7 2 12 -3
12 -6 0 -11 5 -11 10 0 15 17 12 23 -5z m0 -265 c-3 -13 -13 -20 -27 -19 -17
1 -17 2 -3 6 9 2 17 13 17 24 0 11 4 18 9 15 5 -3 7 -15 4 -26z"/>
<path d="M10840 5240 c0 -5 5 -10 10 -10 6 0 10 5 10 10 0 6 -4 10 -10 10 -5
0 -10 -4 -10 -10z"/>
<path d="M10691 4531 c-8 -5 -21 -7 -30 -4 -9 3 -8 -1 4 -8 30 -20 45 -19 45
2 0 22 0 22 -19 10z"/>
<path d="M10650 4461 c0 -6 4 -13 10 -16 6 -3 7 1 4 9 -7 18 -14 21 -14 7z"/>
<path d="M10690 4445 c-7 -9 -11 -17 -9 -20 3 -2 10 5 17 15 14 24 10 26 -8 5z"/>
<path d="M4914 6813 c-22 -68 -39 -92 -83 -117 -25 -14 -39 -26 -30 -26 29 0
97 58 110 94 10 27 16 33 26 24 7 -6 13 -19 13 -30 0 -27 54 -78 82 -77 15 0
18 3 8 6 -40 15 -69 47 -86 93 -19 52 -31 62 -40 33z"/>
<path d="M5085 6662 c-6 -5 -29 -14 -52 -21 -31 -8 -50 -22 -68 -49 -14 -20
-25 -42 -25 -48 0 -6 -7 -17 -15 -24 -8 -7 -12 -17 -9 -22 9 -14 19 -1 51 62
25 50 33 57 77 71 28 8 52 21 54 27 4 14 0 15 -13 4z"/>
<path d="M4810 6630 c20 -13 33 -13 25 0 -3 6 -14 10 -23 10 -15 0 -15 -2 -2
-10z"/>
<path d="M4882 6566 c12 -25 24 -44 26 -42 5 6 -28 75 -39 82 -5 3 1 -15 13
-40z"/>
</g>
</svg>
